<?xml version="1.0" encoding="utf-8"?>
<!-- Svg Vector Icons : http://www.onlinewebfonts.com/icon -->
<!DOCTYPE svg PUBLIC "-//W3C//DTD SVG 1.1//EN" "http://www.w3.org/Graphics/SVG/1.1/DTD/svg11.dtd">
<svg version="1.1" xmlns="http://www.w3.org/2000/svg" xmlns:xlink="http://www.w3.org/1999/xlink" x="0px" y="0px" viewBox="0 0 1000 1000" enable-background="new 0 0 1000 1000" xml:space="preserve">
<metadata> Svg Vector Icons : http://www.onlinewebfonts.com/icon </metadata>
<g><g transform="translate(0.000000,512.000000) scale(0.100000,-0.100000)"><path d="M4525.5,5003.4C3374,4884.6,2339.4,4396,1528.9,3585.5C751,2807.6,287.3,1859.2,124.4,722.9c-32.6-226.1-32.6-981,0-1207.1c162.9-1136.2,628.5-2084.6,1404.5-2862.5c776-776,1728.2-1243.5,2862.5-1404.4c226.1-32.6,981-32.6,1207.1,0c1117,159,2036.7,607.4,2831.9,1383.4c115,111.1,216.5,216.5,226.1,233.8c15.3,26.8-59.4,101.5-431.1,427.3c-247.2,216.5-454.1,392.8-459.8,392.8c-5.7,0-90-80.5-189.7-178.2c-877.5-871.8-2094.2-1232-3328.1-988.7c-693.6,138-1421.7,540.3-1906.4,1053.8C1276-1302.3,1017.3,330.2,1682.2,1709.7c616.9,1278,1902.6,2086.6,3322.4,2088.5c1032.7,0,2073.1-482.8,2774.4-1289.5l95.8-113l-525-525l-525-525h1538.6H9900v1536.7v1538.6l-574.8-574.8l-574.8-574.8l-99.6,111.1c-218.4,249.1-708.9,651.5-1059.6,869.9c-601.6,373.6-1260.7,618.9-1944.8,724.2C5406.9,5012.9,4767,5028.3,4525.5,5003.4z"/></g></g>
</svg>